<?xml version="1.0" encoding="utf-8"?>
<!-- Generator: Adobe Illustrator 23.0.3, SVG Export Plug-In . SVG Version: 6.00 Build 0)  -->
<svg version="1.1" id="Layer_1" xmlns="http://www.w3.org/2000/svg" xmlns:xlink="http://www.w3.org/1999/xlink" x="0px" y="0px"
	 viewBox="0 0 792 1224" style="enable-background:new 0 0 792 1224;" xml:space="preserve">
<style type="text/css">
	.st0{fill:none;stroke:#000000;stroke-miterlimit:10;}
	.st1{fill:#ED2124;}
	.st2{clip-path:url(#SVGID_2_);}
</style>
<rect x="72" y="288" class="st0" width="648" height="648"/>
<g>
	<ellipse class="st1" cx="397.1" cy="557.2" rx="68.6" ry="64.3"/>
	<path d="M325.8,612.1c0.2-1.5-0.3-2.9-0.9-4.2c-2.4-5-4.5-10.3-9.8-13.2c-1.4-0.8-1.9-2.4-0.9-3.6c2.1-2.6,1.2-5.4,0.8-8.1
		c-0.7-4.3-1.5-8.6-4.9-11.8c-1.7-1.7-1.4-3.4,0.6-4.6c1.4-0.8,2.2-1.5,2.3-3.4c0.2-2.4,0.7-4.8,1-7.2c0.3-3-0.1-5.7-1.2-8.5
		c-1.3-3.1-0.9-3.9,2.3-4.7c1.1-0.3,1.9-0.7,2.4-1.9c1.1-2.4,2.4-4.6,3.4-7c1.1-2.6,1.9-5.2,1.4-8.2c-0.6-3.8,0.6-4.8,4.3-4.2
		c1.2,0.2,1.7-0.1,2.5-1.2c1.8-2.4,3.9-4.5,5.9-6.7c1.8-2,3-4.3,3.3-7.1c0.3-3.2,1.4-3.8,4.5-2.5c0.7,0.3,1.4,0.7,2.1,1
		c0.3,0.2,0.8,0.4,0.9-0.2c0.4-2,2.3-2.1,3.6-2.8c2.5-1.4,4.7-3.1,7.1-4.6c1.3-0.8,2-2.1,2.6-3.4c1.6-3.8,4.1-4,6.6-0.7
		c0.4,0.6,0.5,1.7,1.5,1.4c1-0.3,0.1-1,0.2-1.5c0.3-0.9,1.3-0.7,2-0.8c3.3-0.6,6.6-1.4,9.7-2.5c1.9-0.7,3.4-1.8,4.5-3.4
		c0.7-1,1.4-2.2,2.9-1.9c1.5,0.3,2.5,1.5,3,2.9c0.5,1.2,0.5,2.8,2.2,0.9c0.3-0.3,1.2-0.3,1.8-0.2c3.3,0.7,6.6,0.5,9.8,0.3
		c1.6-0.1,2.9,1.3,4,1c0.8-0.3,0.8-2.3,1.9-3.3c1.4-1.1,2.9-1.8,3.9,0c2.3,4.5,6.6,5.3,10.8,6.6c1.2,0.4,2.4,0.6,3.5,1
		c0.6,0.2,1.4,0.3,1.5,1.2c0.1,0.7,0.2,1.3,1,1.2c0.7,0,1-0.6,1.3-1.1c0.6-1.2,1.7-1.7,2.8-2.2c1.4-0.5,2.8-0.3,3.2,1.3
		c1.7,5.5,6.4,7.9,10.8,10.7c0.9,0.6,2,0.8,2.2,2.2c0.1,0.6,0.5,0.7,1,0.5c0.3-0.2,0.7-0.3,1-0.5c4.5-1.9,5.4-1.4,5.9,3.3
		c0.4,4,2.9,6.6,5.2,9.5c1.1,1.3,2.7,2.3,3,4.2c0.2,1,1,0.5,1.5,0.5c5.6,0.1,5.9,0.5,5,6c-0.6,3.7,0.7,6.9,2.1,10.2
		c0.6,1.3,1.2,2.6,1.7,4c0.5,1.3,1.6,1.5,2.7,1.8c2.7,0.8,3.4,2,2,4.4c-3.3,5.4-2.2,11-1.3,16.7c0.2,1.1,0.9,1.8,1.8,2.4
		c2.1,1.3,2.4,2.6,0.7,4.5c-4,4.2-5.8,9.2-6.4,14.9c-0.1,1.5,0.2,2.7,0.7,4c1.1,2.6,0.8,4-1.7,5.3c-5.1,2.7-7.5,7.5-9.8,12.3
		c-0.5,1.1-0.5,2.4-0.5,3.6c-0.1,2.6-1.2,4.3-3.9,4.9c-5.8,1.3-9.6,5.5-13.5,9.5c-0.7,0.7-1,1.7-1.2,2.7c-0.6,2.3-2.2,3.3-4.6,3.4
		c-7.4,0.2-13.7,3.2-19.1,8.2c-1.4,1.3-3,1.6-4.9,1.2c-5.3-1.2-10.5-0.6-15.7,0.6c-1.8,0.4-3.5,1.2-5,2.2c-1.4,0.9-3,1.4-4.3,0.3
		c-3.9-3.3-8.8-3.3-13.4-4.1c-2.5-0.5-5-0.3-7.5,0.2c-2.1,0.4-4-0.1-5.5-1.6c-4.1-4.2-9.3-6.3-14.6-8.3c-1.4-0.5-2.9-0.3-4.3-0.3
		c-2.1,0-3.6-0.7-3.8-3c-0.2-1.4-0.9-2.6-1.8-3.6c-3.9-4.2-7.8-8.4-13.6-10.2C326,615.7,325.5,614.1,325.8,612.1z M397.7,619.1
		c6.2,0.1,14-1.2,21.8-3.6c12.5-3.8,22.7-11,31.1-20.8c3.1-3.6,5.2-7.9,7.1-12.4c2.1-5.1,4.1-10.1,5-15.7c2-12.8,0.3-24.9-5.3-36.5
		c-5.3-10.9-13.2-19.5-23.4-25.7c-12.8-7.8-26.8-11.2-41.8-10.2c-12.2,0.9-23.5,4.4-33.8,11c-13.1,8.5-22.2,20.1-26.7,35.1
		c-1.8,5.9-2.4,12-2.4,18.1c0,6.5,1.3,12.8,3.5,19c1.8,4.9,4.4,9.3,7,13.8c2,3.4,4.9,6,7.4,8.9c3,3.4,6.4,6.4,10.4,8.6
		c5.8,3.2,11.6,5.8,18.1,7.5C382.3,618,388.9,619.1,397.7,619.1z"/>
	<g>
		<path d="M278,696.9c5.7,0.4,10,1.9,12.8,4.3c2.8,2.4,4.2,5.5,4.2,9.1c0,3.2-0.9,5.9-2.8,8.2c-1.9,2.3-4.3,3.8-7.3,4.5
			c-2.9,0.7-6.9,1.1-11.9,1.1h-19.9v-1.7h1.9c2.2,0,3.7-0.3,4.5-0.8s1.4-1.4,1.6-2.6s0.3-3.9,0.3-8.1v-24.6c0-4.1-0.1-6.8-0.4-8
			c-0.2-1.2-0.7-2-1.5-2.5c-0.8-0.4-2.4-0.7-5-0.7h-1v-1.7l8.3-0.2l9.5-0.3c13.8,0,20.8,4,20.8,11.9c0,3.3-1.2,5.9-3.6,7.9
			C286.3,694.9,282.7,696.2,278,696.9z M268.8,696.2c0.6,0,1.1,0,1.6,0c5.4,0,9-0.8,11-2.5c2-1.7,2.9-4.4,2.9-8.2
			c0-2.6-0.4-4.7-1.2-6.1s-1.9-2.6-3.5-3.3c-1.5-0.8-4.2-1.2-7.9-1.2c-1,0-2,0-3,0.1V696.2z M268.8,698v11.3c0,4.8,0.1,7.9,0.3,9.1
			c0.2,1.3,0.6,2.3,1.4,2.9c0.8,0.7,2.3,1,4.5,1c4,0,7-1,9-3.1c2-2,3-5.1,3-9.2c0-4.2-1.1-7.3-3.4-9.2s-6.2-3-11.9-3
			C270.8,698,269.8,698,268.8,698z"/>
		<path class="st1" d="M343.2,713.8l1.7-0.5l2.9,15.5l-40.6,10.5l-0.4-1.7l1-0.3c2.4-0.6,3.9-1.4,4.5-2.2s0.8-1.8,0.7-2.8
			c-0.1-1-0.6-3.6-1.7-7.7l-6.2-24c-1-3.7-1.7-6.2-2.2-7.3s-1.2-1.8-2.1-2.1s-2.5-0.1-4.8,0.5l-0.4-1.7l35-9.1l4.3,11.9l-1.7,0.4
			c-1.7-3.2-3.2-5.4-4.7-6.5c-1.5-1.1-3.1-1.7-4.7-1.7c-1.6,0-4.2,0.5-7.6,1.4l-6.8,1.8l5.3,20.6l5.2-1.4c2.4-0.6,4-1.3,4.8-1.9
			c0.8-0.7,1.3-1.4,1.4-2.3s-0.2-2.6-0.8-5l1.7-0.4l4.4,16.8l-1.7,0.4c-0.7-2.7-1.4-4.5-2.1-5.3s-1.5-1.2-2.5-1.3s-2.5,0.2-4.6,0.7
			l-5.4,1.4l3,11.6c1.5,5.8,2.8,9.1,3.8,10c1,0.8,3.2,0.8,6.4,0l3.6-0.9c2.6-0.7,4.6-1.6,6.1-2.6s2.7-2.9,3.7-5.3
			S343.3,717.6,343.2,713.8z"/>
		<path d="M389.8,708.4h1.8l-1.1,15.8h-41.9v-1.7h1c2.5,0,4.1-0.3,4.9-1c0.7-0.7,1.2-1.5,1.4-2.6c0.2-1,0.3-3.7,0.3-7.9v-24.8
			c0-3.9-0.1-6.4-0.3-7.6s-0.7-2.1-1.5-2.6c-0.8-0.5-2.4-0.7-4.8-0.7v-1.7h36.2l1.2,12.6h-1.8c-0.8-3.5-1.8-6-2.9-7.5
			c-1.2-1.5-2.5-2.4-4.1-2.8s-4.2-0.6-7.7-0.6h-7v21.2h5.4c2.5,0,4.2-0.2,5.2-0.6c1-0.4,1.6-1.1,1.9-1.9s0.5-2.5,0.5-5h1.8v17.3
			h-1.8c0-2.8-0.2-4.7-0.7-5.7c-0.5-1-1.2-1.6-2.1-1.9c-0.9-0.3-2.4-0.4-4.6-0.4h-5.6v12c0,6,0.4,9.5,1.2,10.6
			c0.8,1.1,2.8,1.6,6.2,1.6h3.8c2.7,0,4.9-0.3,6.6-1c1.7-0.7,3.4-2.1,4.9-4.2C387.6,715.1,388.9,712.2,389.8,708.4z"/>
		<path d="M397.6,685.7h-1.7l0.3-12.2h49.1l0.3,12.2h-1.6c-0.6-3.3-1.4-5.7-2.4-7.2c-1-1.5-2.1-2.4-3.2-2.7s-3.1-0.5-5.9-0.5h-8.1
			V711c0,4,0.1,6.6,0.3,7.8c0.2,1.2,0.7,2.2,1.5,2.8c0.8,0.6,2.4,0.9,4.6,0.9h2.5v1.7H408v-1.7h2.6c2.2,0,3.7-0.3,4.5-0.8
			c0.8-0.5,1.4-1.4,1.6-2.6c0.2-1.2,0.4-3.9,0.4-8.1v-35.7h-7.5c-3.3,0-5.5,0.2-6.6,0.5s-2.2,1.3-3.2,2.8
			C398.8,680.1,398.1,682.5,397.6,685.7z"/>
		<path d="M492.8,709.3l-0.4,14.9h-43v-1.7h1.5c2.2,0,3.7-0.3,4.5-0.8c0.8-0.5,1.4-1.4,1.6-2.6c0.2-1.2,0.4-3.9,0.4-8.1v-24.8
			c0-4-0.1-6.6-0.4-7.8c-0.2-1.2-0.7-2-1.5-2.4c-0.8-0.4-2.4-0.7-5-0.7h-1.1v-1.7h24.3v1.7h-2.2c-2.5,0-4.1,0.2-4.9,0.6
			s-1.3,1.2-1.5,2.3c-0.3,1.1-0.4,3.8-0.4,8v26.5c0,3.7,0.1,5.9,0.3,6.9s0.7,1.6,1.6,2.1c0.9,0.5,2.8,0.8,5.7,0.8h3.8
			c3.1,0,5.4-0.3,6.9-0.8c1.5-0.5,2.9-1.7,4.3-3.6s2.6-4.8,3.7-8.8H492.8z"/>
		<path d="M537.1,708.4h1.8l-1.1,15.8h-41.9v-1.7h1c2.5,0,4.1-0.3,4.9-1c0.7-0.7,1.2-1.5,1.4-2.6s0.3-3.7,0.3-7.9v-24.8
			c0-3.9-0.1-6.4-0.3-7.6s-0.7-2.1-1.5-2.6c-0.8-0.5-2.4-0.7-4.8-0.7v-1.7h36.2l1.2,12.6h-1.8c-0.8-3.5-1.8-6-2.9-7.5
			s-2.5-2.4-4.1-2.8c-1.6-0.4-4.2-0.6-7.7-0.6h-7v21.2h5.4c2.5,0,4.2-0.2,5.2-0.6c1-0.4,1.6-1.1,1.9-1.9s0.5-2.5,0.5-5h1.8v17.3
			h-1.8c0-2.8-0.2-4.7-0.7-5.7c-0.5-1-1.2-1.6-2.1-1.9c-0.9-0.3-2.4-0.4-4.6-0.4h-5.6v12c0,6,0.4,9.5,1.2,10.6
			c0.8,1.1,2.8,1.6,6.2,1.6h3.8c2.7,0,4.9-0.3,6.6-1c1.7-0.7,3.4-2.1,4.9-4.2S536.2,712.2,537.1,708.4z"/>
	</g>
	<g>
		<defs>
			<ellipse id="SVGID_1_" cx="396.1" cy="558.9" rx="68.6" ry="63.6"/>
		</defs>
		<clipPath id="SVGID_2_">
			<use xlink:href="#SVGID_1_"  style="overflow:visible;"/>
		</clipPath>
		<g id="_x36_qWYIP_5_" class="st2">
			<g>
				<path d="M372.7,538.2c-2.1,2.7-3.5,5.8-3.9,9.2c-0.4,3.1-0.8,6.2-0.9,9.3c-0.2,6.5,2.5,12.4,4.6,18.3c0.6,1.6,1.8,3.4,4.3,2.2
					c0.9-0.4,2-0.7,3-0.7c4.6,0,9.3,0,13.9,0.1c2.6,0.1,5-0.5,6.1-3.1c1.2-2.6,1.3-5.3-0.6-7.7c-0.8-1.1-2-2-2.8-3.1
					c-0.4-0.6-0.5-1.5-0.7-2.3c0.8-0.1,1.6-0.2,2.3-0.2c0.7,0,1.3,0.3,2,0.5c0.3-2.6,0.7-2.8,3.1-2.2c0.7,0.2,1.3,0.4,2,0.6
					c7.7,2.2,10.7,11.7,5.7,18h0c-2.2,2.8-4.9,5.3-7.9,7.3l-3.6,2.4c-1.1,0.6-2.4,1-3.7,1.2c-6.7,1.3-13,3.3-17.8,8.6
					c-1.4,1.6-2,3.2-1.1,5.1l0,0l0,0c-3.6,1.9-7.7,2.5-11.7,1.8c-1.4-0.2-2.7-0.4-4.1-0.6l-16.9-3.8l0,0c-2-0.6-4.1-0.5-6,0.3
					l-4.5,1.9c-0.8,0.3-1.6,0.5-2.5,0.6c-0.4,0-0.8,0.1-1.1,0c-7.3-2-12.6-6.8-17.2-12.4c-2-2.4-4.1-3.8-7.3-2.6
					c-0.3,0.1-0.8-0.7-1.3-1v-54.5c1.5,0.6,3.5,0.7,4.5,1.8c1.7,1.8,3,1.2,4.5,0.2c5.7-3.7,12-5.8,18.6-7.5c8.9-2.3,17.7-5,26.5-7.9
					c10.2-3.4,20.4-5.8,31.3-5.5c9.8,0.3,17,4.5,22.4,12.3c0.9,1.3,1.5,2.9,2,4.5c0.2,0.5-0.2,1.5-0.6,1.8c-0.3,0.2-1.3,0-1.7-0.4
					c-1.1-0.9-2.2-1.8-3-2.9c-1.8-2.3-4-4-6.3-5.1c-7.5-3.5-16.5-1-21.7,5.5L372.7,538.2z"/>
			</g>
		</g>
	</g>
</g>
<g>
	<path d="M431.5,574c-0.1,1.5-0.6,3-1.6,4.2c-1,1.2-2.5,2.1-4.2,2.2c-1.7,0.1-3.4-0.5-4.7-1.7c-1.3-1.2-2.1-2.9-2.2-4.7
		c-0.1-1.8,0.6-3.7,1.8-5.1c1.2-1.4,3.2-2.2,5.1-2.1c1.9,0.1,3.6,1.2,4.6,2.6C431.2,570.9,431.5,572.5,431.5,574z M431.2,574
		c0-1.5-0.9-2.8-2.1-3.4c-1.2-0.7-2.4-0.8-3.4-0.7c-1.1,0.1-2.1,0.5-3,1.2c-0.9,0.7-1.4,1.8-1.5,3c-0.1,1.2,0.3,2.4,1.1,3.3
		c0.8,0.9,2,1.5,3.3,1.6c1.3,0.1,2.7-0.3,3.8-1.1C430.5,576.9,431.2,575.5,431.2,574z"/>
</g>
<g>
	<path d="M444.8,556.7c-1.3,0.3-2.6,0.1-3.9-0.4c-1.2-0.5-2.3-1.6-2.8-3.1c-0.4-1.4-0.3-3,0.4-4.4c0.7-1.3,2-2.4,3.5-2.9
		c1.5-0.5,3.2-0.3,4.7,0.4c1.5,0.8,2.6,2.2,2.9,3.9c0.3,1.6-0.2,3.4-1.3,4.4C447.4,555.8,446.1,556.4,444.8,556.7z M444.7,556.4
		c1.2-0.3,2.1-1.4,2.3-2.5c0.3-1.1,0.1-2.1-0.2-2.9c-0.3-0.8-0.8-1.5-1.5-2.1c-0.7-0.6-1.7-0.8-2.6-0.6c-1.9,0.3-3.5,2.4-3.1,4.5
		c0.2,1.1,0.7,2.1,1.6,2.9C442.2,556.5,443.5,556.8,444.7,556.4z"/>
</g>
<g>
	<path d="M429.2,536.5c-1-0.2-2-0.7-2.8-1.5c-0.8-0.8-1.3-2-1.2-3.2c0.1-1.2,0.7-2.4,1.7-3.2c1-0.8,2.3-1.2,3.6-1.1
		c1.3,0.1,2.6,0.8,3.5,1.9c0.9,1.1,1.3,2.6,1,4c-0.3,1.4-1.4,2.5-2.6,2.9C431.4,536.8,430.2,536.7,429.2,536.5z M429.3,536.2
		c1,0.1,1.9-0.4,2.4-1.2c0.5-0.8,0.5-1.5,0.5-2.1c0-0.6-0.1-1.2-0.4-1.8c-0.3-0.6-0.8-1.1-1.5-1.2c-1.4-0.4-3.1,0.5-3.5,2.1
		c-0.2,0.8-0.2,1.7,0.2,2.6C427.4,535.5,428.3,536.1,429.3,536.2z"/>
</g>
<g>
	<path d="M441.6,518.4c-0.9-0.6-1.6-1.4-2-2.4c-0.5-1-0.5-2.3,0-3.4c0.5-1.1,1.5-2,2.7-2.4c1.2-0.4,2.6-0.3,3.8,0.3
		c1.2,0.6,2.2,1.7,2.6,3c0.5,1.3,0.3,2.9-0.5,4.1c-0.8,1.2-2.2,1.9-3.4,1.8C443.5,519.4,442.4,519,441.6,518.4z M441.7,518.1
		c0.9,0.5,2,0.3,2.6-0.3c0.7-0.5,1-1.2,1.3-1.8c0.2-0.6,0.3-1.2,0.3-1.8c-0.1-0.6-0.4-1.3-1-1.7c-1.1-0.9-3.1-0.6-4,0.7
		c-0.5,0.7-0.8,1.5-0.7,2.5C440.2,516.8,440.8,517.7,441.7,518.1z"/>
</g>
</svg>
