<?xml version="1.0" encoding="utf-8"?>
<!-- Generator: Adobe Illustrator 23.0.3, SVG Export Plug-In . SVG Version: 6.00 Build 0)  -->
<svg version="1.1" id="Layer_1" xmlns="http://www.w3.org/2000/svg" xmlns:xlink="http://www.w3.org/1999/xlink" x="0px" y="0px"
	 viewBox="0 0 792 1224" style="enable-background:new 0 0 792 1224;" xml:space="preserve">
<style type="text/css">
	.st0{fill:#FFFFFF;stroke:#000000;stroke-miterlimit:10;}
	.st1{clip-path:url(#SVGID_2_);}
	.st2{clip-path:url(#SVGID_4_);fill:#FFFFFF;stroke:#000000;stroke-width:12;stroke-miterlimit:10;}
	.st3{clip-path:url(#SVGID_6_);}
	.st4{clip-path:url(#SVGID_8_);fill:#FFFFFF;stroke:#000000;stroke-width:12;stroke-miterlimit:10;}
	.st5{clip-path:url(#SVGID_10_);stroke:#000000;stroke-width:0.5;stroke-miterlimit:10;}
	.st6{clip-path:url(#SVGID_12_);}
	.st7{clip-path:url(#SVGID_14_);fill:#FFFFFF;stroke:#000000;stroke-width:12;stroke-miterlimit:10;}
	.st8{clip-path:url(#SVGID_16_);fill:#FFFFFF;stroke:#000000;stroke-miterlimit:10;}
	.st9{clip-path:url(#SVGID_18_);fill:#FFFFFF;stroke:#000000;stroke-miterlimit:10;}
	.st10{clip-path:url(#SVGID_20_);stroke:#000000;stroke-width:12;stroke-miterlimit:10;}
	.st11{clip-path:url(#SVGID_22_);stroke:#000000;stroke-width:12;stroke-miterlimit:10;}
	.st12{clip-path:url(#SVGID_24_);fill:#FFFFFF;stroke:#000000;stroke-miterlimit:10;}
	.st13{clip-path:url(#SVGID_26_);}
	.st14{clip-path:url(#SVGID_28_);}
	.st15{clip-path:url(#SVGID_30_);stroke:#000000;stroke-width:12;stroke-miterlimit:10;}
	.st16{clip-path:url(#SVGID_32_);stroke:#000000;stroke-width:12;stroke-miterlimit:10;}
	.st17{clip-path:url(#SVGID_34_);fill:#FFFFFF;}
	.st18{clip-path:url(#SVGID_36_);fill:#FFFFFF;}
	.st19{fill:none;stroke:#000000;stroke-width:20;stroke-miterlimit:10;}
	.st20{fill:#ED2024;}
	.st21{fill:#FFFFFF;}
	.st22{font-family:'Futura-MediumItalic';}
	.st23{font-size:210.4028px;}
	.st24{letter-spacing:2.6;}
	.st25{fill:none;stroke:#FFFFFF;stroke-width:16;stroke-miterlimit:10;}
</style>
<rect x="24.2" y="32.4" class="st0" width="734.1" height="1154"/>
<g>
	<g>
		<defs>
			<rect id="SVGID_1_" x="55.4" y="65.9" width="681.3" height="856.1"/>
		</defs>
		<clipPath id="SVGID_2_">
			<use xlink:href="#SVGID_1_"  style="overflow:visible;"/>
		</clipPath>
		<rect x="55.4" y="65.9" class="st1" width="681.3" height="912.3"/>
	</g>
</g>
<g>
	<g>
		<defs>
			<rect id="SVGID_3_" x="55.4" y="65.9" width="681.3" height="856.1"/>
		</defs>
		<clipPath id="SVGID_4_">
			<use xlink:href="#SVGID_3_"  style="overflow:visible;"/>
		</clipPath>
		<path class="st2" d="M355.4,322.1c0,0,3.9-87.5-168.4-87.5c-60,0-73.5-16.7-54.2-47.9c19.4-31.2,15.5-116.6,110.3-150
			s360,16.7,385.2,62.5c17.2,31.3,16.3,84,18.3,119.5c1,17.8-12.6,32.6-29.2,31.7c-64.2-3.5-191.4-2.2-188.5,63.3L355.4,322.1z"/>
	</g>
</g>
<g>
	<g>
		<defs>
			<rect id="SVGID_5_" x="55.4" y="65.9" width="681.3" height="856.1"/>
		</defs>
		<clipPath id="SVGID_6_">
			<use xlink:href="#SVGID_5_"  style="overflow:visible;"/>
		</clipPath>
		<polygon class="st3" points="43.1,747.8 153.4,729.4 299.2,897 444.4,911.6 605,749.2 741.5,772.1 740.5,982.4 41.8,982.4 		"/>
	</g>
</g>
<g>
	<g>
		<defs>
			<rect id="SVGID_7_" x="55.4" y="65.9" width="681.3" height="856.1"/>
		</defs>
		<clipPath id="SVGID_8_">
			<use xlink:href="#SVGID_7_"  style="overflow:visible;"/>
		</clipPath>
		<path class="st4" d="M48.6,472.1c0,0,28.4,49,26.8,110.1c0,0,1,24,31.6,29.2c0,0,21.9,70.1,34.8,89.9
			c12.9,19.8,67.7,112.8,110.3,149.3s47.4,63.5,107.1,64.2s104.8,3.8,163.2-52.1c58.4-55.9,109.4-139.6,110.3-142
			s43.2-71.9,47.4-105.2c0,0,31.9,6.2,40.3-9.4s6.1-23.6,1.9-29.9c-4.2-6.2,23.2-26.2,23.9-42.1V362.4c0,0-20,1.4-34.5,11.1
			l-1.1-6.9c-0.7-4.2-4-7.5-7.9-7.5c-2.8,0-5.5,1.6-6.6,7.2c-2.3,12.1-8.2,52.1-21.1,69.8c-1.6,2.2-3.1,4.6-4.5,7
			c-10.8,18.7-18.1,23.9-38.3,30.8c0,0-88,16.2-129.2,6.5c-41.3-9.7-63.9-13.2-78.7-66.7c-14.8-53.5-27.1-48.6-34.2-50.7
			s-26.5-6.9-38.7,34.7c-19.4,42.4-32.9,76.4-78.1,71.5c-47.7,0.7-68.4-0.7-105.8-9.7s-58.1-22.2-67.1-59c-3.4-13.8-5.9-27-8.5-38.8
			c-1.2-5.3-7.8-5.7-9.9-0.7c-0.1,0.2-0.2,0.4-0.3,0.6c0,0-21.9-20.5-36.1,7.3C45.7,400.3,48.6,472.1,48.6,472.1z"/>
	</g>
</g>
<g>
	<g>
		<defs>
			<rect id="SVGID_9_" x="55.4" y="65.9" width="681.3" height="856.1"/>
		</defs>
		<clipPath id="SVGID_10_">
			<use xlink:href="#SVGID_9_"  style="overflow:visible;"/>
		</clipPath>
		<path class="st5" d="M254.7,708.4c0,0,64.9-75,98.1-69.4s28,15.7,35.7,16.2s21.9-15.3,30.1-15.3s86,31,97.2,69.4
			c11.2,38.4-92,37.5-101.9,49.5s-3.4,8.3-3.4,8.3l-28.4,1.9c0,0-1.7-6.9-6.5-8.8C370.8,758.4,246.1,746.8,254.7,708.4z"/>
	</g>
</g>
<g>
	<g>
		<defs>
			<rect id="SVGID_11_" x="55.4" y="65.9" width="681.3" height="856.1"/>
		</defs>
		<clipPath id="SVGID_12_">
			<use xlink:href="#SVGID_11_"  style="overflow:visible;"/>
		</clipPath>
		<path class="st6" d="M73.7,319.4c0,0-1-27.8,0-32.6c1-4.9,0.6-9,12.9-10.8c12.3-1.7,60-11.8,122.3-7.6
			c62.3,4.2,143.9,34.4,143.9,34.4s21.9,9.7,33.2,9.7s37.7-5.6,49.7-8.7S508.6,283,548.6,284s139,13.2,157.7,18.7c0,0,7.1-0.7,7.4,9
			c0.6,10.1-0.3,32.3-0.3,32.3s1.9,8.7-13.2,5.9c0,0-4.8,0.7-5.2,14.6s-7.4,91.3-59.7,108c-54.8,13.9-130,12.8-153.2,2.1
			c-18.1-6.9-22.9-2.4-42.9-24.6c0,0-11.9-18.4-21.6-56.6c0,0-10.3-29.9-28.7-30.2c-18.4-0.3-21.6-0.3-34.8,27.1
			c-13.2,27.4-19,51-37.4,66.7c-18.4,15.6-31.9,12.5-44.2,12.5s-78.7,2.8-128.7-17c0,0-31-8.3-41.6-45.5S89.6,330.8,73.7,319.4z"/>
	</g>
</g>
<g>
	<g>
		<defs>
			<rect id="SVGID_13_" x="55.4" y="65.9" width="681.3" height="856.1"/>
		</defs>
		<clipPath id="SVGID_14_">
			<use xlink:href="#SVGID_13_"  style="overflow:visible;"/>
		</clipPath>
		<path class="st7" d="M326.5,445.5c0,0-18.5,44-21.5,48.1c-3,4.2-30.3,40.4-12,57.9c14.8,16.3,31,22.3,37.7,24.2
			c0.7,0.2,1.2-0.8,0.6-1.3c-6.4-5.3-22.2-19.3-18.1-23.3c5.2-5.1,10.3-9.3,21.5-1.4c11.2,7.9,24.1,27.8,31.4,28.7s18.5,6,30.5-3.7
			s41.3-31.5,48.6-28.2c7.3,3.2,12.9-3.2,1.7,18.5s-2.6,10.6,11.2,0.9c13.8-9.7,23.2-16.2,18.9-41.6c0,0,0,0,0-0.1
			c-0.1-0.5-2.2-8.9-9.7-18.2c-8.8-11.1-16-23.7-20.6-37.5l-4.6-13.6l0,0l-24.6-61.4c0,0,0,0,0-0.1c-0.3-1.1-9.8-31.6-33-31.1
			c-23.7,0.5-25.4,21.8-30.5,28C348.9,396.4,326.5,445.5,326.5,445.5z"/>
	</g>
</g>
<g>
	<g>
		<defs>
			<rect id="SVGID_15_" x="55.4" y="65.9" width="681.3" height="856.1"/>
		</defs>
		<clipPath id="SVGID_16_">
			<use xlink:href="#SVGID_15_"  style="overflow:visible;"/>
		</clipPath>
		<path class="st8" d="M154.5,283.5c0,0-40,0-43,38.4s-6.9,30.6,1.3,68s24.1,45.8,37.4,50.9s89.9,26.4,124.7,14.8s43-26.4,50.8-42.1
			s22.4-54.2,20.6-68.5c-1.7-14.3,0.4-35.2-42.6-44C260.7,292.3,211.7,272.4,154.5,283.5z"/>
	</g>
</g>
<g>
	<g>
		<defs>
			<rect id="SVGID_17_" x="55.4" y="65.9" width="681.3" height="856.1"/>
		</defs>
		<clipPath id="SVGID_18_">
			<use xlink:href="#SVGID_17_"  style="overflow:visible;"/>
		</clipPath>
		<path class="st9" d="M470.2,311.7c0,0-45.6,3.2-37.8,50.9s18.1,103.2,76.1,105.1c58.1,1.9,108.4-1.9,119.1-8.3
			c14.2-5.6,43.4-15.3,48.6-75.5s-0.4-68.5-29.7-76.4S529.5,289,470.2,311.7z"/>
	</g>
</g>
<g>
	<g>
		<defs>
			<rect id="SVGID_19_" x="55.4" y="65.9" width="681.3" height="856.1"/>
		</defs>
		<clipPath id="SVGID_20_">
			<use xlink:href="#SVGID_19_"  style="overflow:visible;"/>
		</clipPath>
		<path class="st10" d="M217,341.6c0,0-34.5,6.2-37.7,14.9c-3.2,8.7,40,16.3,50,17.7c10,1.4,42.6-1,55.5-26.7c0,0-6.8-9.4-16.8-8
			c0,0,4.8,13.9-2.9,22.2c-7.7,8.3-22.3,15.3-36.5,6.2C214.4,358.9,217.3,351.3,217,341.6z"/>
	</g>
</g>
<g>
	<g>
		<defs>
			<rect id="SVGID_21_" x="55.4" y="65.9" width="681.3" height="856.1"/>
		</defs>
		<clipPath id="SVGID_22_">
			<use xlink:href="#SVGID_21_"  style="overflow:visible;"/>
		</clipPath>
		<path class="st11" d="M487,366.9c0,0,29-20.8,34.8-19.8c0,0-9.7,36.5,22.3,33.3c31.9-3.1,29-21.9,29-25s21.3,7.3,25.2,15.6
			C602.1,379.4,519.9,402.3,487,366.9z"/>
	</g>
</g>
<g>
	<g>
		<defs>
			<rect id="SVGID_23_" x="55.4" y="65.9" width="681.3" height="856.1"/>
		</defs>
		<clipPath id="SVGID_24_">
			<use xlink:href="#SVGID_23_"  style="overflow:visible;"/>
		</clipPath>
		<path class="st12" d="M296.6,700.5c0,0,59.4-24.3,70.3-15.3c0,0,5.1,29.2,19,27.6c2.3-0.3,4.5-0.1,6.8,0.2
			c6,0.7,16.8-0.1,21.9-27.8c0,0,68.4,13.2,78.7,22.9C503.7,717.9,365.7,772.8,296.6,700.5z"/>
	</g>
</g>
<g>
	<g>
		<defs>
			<rect id="SVGID_25_" x="55.4" y="65.9" width="681.3" height="856.1"/>
		</defs>
		<clipPath id="SVGID_26_">
			<use xlink:href="#SVGID_25_"  style="overflow:visible;"/>
		</clipPath>
		<path class="st13" d="M500.7,618.5c-7.8-10.4-23.8-6.3-25.8,6.9c-0.3,2.2-0.2,4.6,0.4,7.1c3.9,14.6,38.7,37.5,48.4,31.2
			C530.1,659.7,513.2,635,500.7,618.5z"/>
	</g>
</g>
<g>
	<g>
		<defs>
			<rect id="SVGID_27_" x="55.4" y="65.9" width="681.3" height="856.1"/>
		</defs>
		<clipPath id="SVGID_28_">
			<use xlink:href="#SVGID_27_"  style="overflow:visible;"/>
		</clipPath>
		<path class="st14" d="M270.7,618.5c7.8-10.4,23.8-6.3,25.8,6.9c0.3,2.2,0.2,4.6-0.4,7.1c-3.9,14.6-38.7,37.5-48.4,31.2
			C241.4,659.7,258.3,635,270.7,618.5z"/>
	</g>
</g>
<g>
	<g>
		<defs>
			<rect id="SVGID_29_" x="55.4" y="65.9" width="681.3" height="856.1"/>
		</defs>
		<clipPath id="SVGID_30_">
			<use xlink:href="#SVGID_29_"  style="overflow:visible;"/>
		</clipPath>
		<path class="st15" d="M734.7,840.8c0,0-127.7-54.2-110.3-100s63.9-129.1,63.9-129.1s27.7,20.1,32.3-5.6
			c4.5-25.7,6.5-46.5,6.5-46.5l9.4-24.3L734.7,840.8z"/>
	</g>
</g>
<g>
	<g>
		<defs>
			<rect id="SVGID_31_" x="55.4" y="65.9" width="681.3" height="856.1"/>
		</defs>
		<clipPath id="SVGID_32_">
			<use xlink:href="#SVGID_31_"  style="overflow:visible;"/>
		</clipPath>
		<polygon class="st16" points="49.6,740.8 146.3,728.3 144.4,709.6 107,611.3 67,592.9 65,509.6 55.4,474.2 		"/>
	</g>
</g>
<g>
	<g>
		<defs>
			<rect id="SVGID_33_" x="55.4" y="65.9" width="681.3" height="856.1"/>
		</defs>
		<clipPath id="SVGID_34_">
			<use xlink:href="#SVGID_33_"  style="overflow:visible;"/>
		</clipPath>
		<path class="st17" d="M149.6,695c0,0-3.2,54.2-74.8,52.1C3.2,745,138.7,824.2,160,820s-5.8-27.1,11.6-43.7
			c3.8-3.6,7.5-7.1,10.9-10.4c11.6-11,11.4-30.5-0.4-41.3L149.6,695z"/>
	</g>
</g>
<g>
	<g>
		<defs>
			<rect id="SVGID_35_" x="55.4" y="65.9" width="681.3" height="856.1"/>
		</defs>
		<clipPath id="SVGID_36_">
			<use xlink:href="#SVGID_35_"  style="overflow:visible;"/>
		</clipPath>
		<path class="st18" d="M637.3,692.9c0,0,5.1,56.2,76.7,54.2c71.6-2.1-63.9,77.1-85.2,72.9c-21.3-4.2,5.8-27.1-11.6-43.7
			c-1.6-1.5-3.2-3-4.7-4.5c-14.8-14.2-14.6-39.2,0.6-53L637.3,692.9z"/>
	</g>
</g>
<rect x="26.5" y="35.9" class="st19" width="737.1" height="1157.7"/>
<rect x="55.4" y="922.1" class="st20" width="681.1" height="245"/>
<text transform="matrix(0.7721 0 0 1 51.3853 1121.0703)" class="st21 st22 st23 st24">SELLOUT</text>
<text transform="matrix(0.7721 0 0 1 51.3853 1121.0703)" class="st25 st22 st23 st24">SELLOUT</text>
</svg>
