<?xml version="1.0" encoding="utf-8"?>
<!-- Generator: Adobe Illustrator 23.0.3, SVG Export Plug-In . SVG Version: 6.00 Build 0)  -->
<svg version="1.1" id="Layer_1" xmlns="http://www.w3.org/2000/svg" xmlns:xlink="http://www.w3.org/1999/xlink" x="0px" y="0px"
	 viewBox="0 0 1008 792" style="enable-background:new 0 0 1008 792;" xml:space="preserve">
<style type="text/css">
	.st0{fill:none;}
	.st1{fill:#FFFFFF;}
</style>
<g>
	<polygon class="st0" points="646,396.3 646,472.2 755.8,513.9 756,395.7 	"/>
	<polygon class="st0" points="253.2,396.7 253.2,510.2 344.8,510.6 345.5,396.8 419.5,396.6 346.8,396.7 346.8,396.7 346.4,396.7 	
		"/>
	<rect x="253.9" y="343.4" class="st0" width="92.5" height="0.1"/>
	<polygon class="st0" points="639.9,395.4 652.4,226.4 754.6,137.2 754.6,137 652.4,226.2 639.9,395.2 553.2,395.3 553.2,395.5 	"/>
	<polygon class="st0" points="502,343.3 501.8,343.3 434.2,343.3 434.2,343.5 502,343.5 	"/>
	<path class="st0" d="M504,343.6l56.1-44.5l0-0.2L504,343.6C504,343.5,503.9,343.5,504,343.6L504,343.6
		C504,343.6,504,343.6,504,343.6z"/>
	<path class="st0" d="M439.8,99.7c3.8-27.6,15.5-50.7,35.2-69.2c8.3-7.7,17.1-13.8,26.5-18.3l0-0.9c-9.8,4.6-18.9,10.9-27.4,19
		c-19.3,18.5-30.7,41.6-34.4,69.2c-3.7,27.7-5.5,87-5.5,178v0.2C434.2,186.7,436.1,127.3,439.8,99.7z"/>
	<polygon class="st0" points="503.4,315.3 504,315.3 504,315.4 693.4,158.8 	"/>
	<path d="M346.5,315.4v-45.1c0-50.3,2-89.3,6.1-117c4-27.6,15.5-56.1,34.4-85.6c18.3-28.5,41.2-50.6,68.6-66.7H251v256.8
		c-39.7-10-72.1-24.4-96.7-45.3C100.9,167.1,63.1,96.6,40.8,1H0.6v114.5c28.6,33.4,58.7,63.5,90.2,90.4c8.9,7.6,20,16,33.4,25.4
		L0.6,196.8v32.4l133.7,35.5c16.3,4.5,32.1,9.2,47.4,14.2c37.2,11.9,56,25.2,69.3,36.4v0.1H346.5z"/>
	<polygon points="346.8,396.7 346.4,396.7 346.8,396.7 	"/>
	<path class="st1" d="M387,67.7c-18.9,29.5-30.4,58-34.4,85.6c-4.1,27.7-6.1,66.7-6.1,117v45.1H251h-1.9l-5.1,28h7h2.9h92.5v0.1
		v53.1v0.1l0.4,0l72.7-0.1l14.4,0l0,0l0.3,0v-0.1v-53v-0.2h67.6h0.2v0.2h1.9c0,0,0.1,0,0.1,0l56.1-44.6l0,0.2l-6.9,96.2h0l86.7-0.1
		l12.5-169L754.6,137v-29l-61.2,50.7L504,315.4v-0.1h-0.6l-0.1,0.1l0-0.1h-1.5h-67.6v-37.6v-0.2c0-91,1.8-150.3,5.5-178
		c3.7-27.6,15.1-50.7,34.4-69.2c8.5-8.1,17.6-14.4,27.4-19l-0.1-10.1h2.3v-1h-46.8c-0.3,0.2-0.6,0.3-0.8,0.5
		c-0.2,0.1-0.3,0.2-0.5,0.3C428.2,17.1,405.3,39.2,387,67.7z"/>
	<path d="M501.5,11.3l0,0.9c-9.4,4.5-18.2,10.6-26.5,18.3c-19.7,18.5-31.4,41.6-35.2,69.2c-3.7,27.6-5.6,87-5.6,178v37.6h67.6h1.5
		l0,0.1l0.1-0.1l189.9-156.5l61.2-50.7v29v0.2l-102.2,89.2l-12.5,169l-86.7,0.1l0-0.2h0l6.9-96.2L504,343.6c0,0,0,0-0.1,0v-0.1H502
		h-67.8v53v0.1v0.1h69.6l0,0.3l48.6-0.3v247.2H646v-69.3l110,40.1v-0.9c3-5.8,6.9-12.9,10.3-18.3c14.4-22.8,32.7-34.5,54.2-48.7
		s47.4-24.9,77.7-32.1l-50-31.5l55.3-87.7h-131l-16.5,0.2l0,0.1l0-0.4h1.2c-0.4-0.4-0.8-0.7-1.2-1.1l-0.7-256.8
		c17.2-5.4,34.2-5.2,55.2,1.4c27.7,8.7,53.5,37,77.4,84.7c23.7,47.4,31.5,85.1,23.5,113.1c-7.8,26.9-23.2,46.5-46.1,58.8h37.7
		c36.4-26.6,60.2-55.2,69.3-86.5c12.9-43.6,9.7-84.7-9.6-123.4c-14.8-29.6-37.3-53.5-67.3-71.6c6.4-24.2,15.8-39.4,28.1-45.5
		c7.8-3.8,18.3-1.4,31.5,7.3C969.4,85,982,87,992.6,81.7c6.2-3,10.8-6.7,13.9-10.9V37c-0.3-0.6-0.5-1.1-0.8-1.7
		c-5-10-13.8-17.1-26.6-21.2c-12.8-4.1-26.9-2.3-42.4,5.4c-28.1,14-48.1,43.4-60.1,88c-40.5-14.4-79-14.9-121,0.1
		c-0.2,0.1-0.4,0.2-0.7,0.2l0.4-0.3V1.2H503.7h-2.3L501.5,11.3z M755.8,513.9L646,472.2v-75.9l110-0.6L755.8,513.9z"/>
	<path class="st1" d="M755.6,107.6v-0.4l-0.3,0.3l-0.4,0.3C755.2,107.7,755.4,107.6,755.6,107.6z"/>
	<path d="M419.5,396.6l-74.1,0.2l-0.7,113.8l-91.6-0.4V396.7h93.2v-0.1v-53.1h-92.5v-0.1H251v53.3h-0.6
		c-9.1,38.8-24.7,75.3-46.7,109.5c-32,49.7-76.3,89.9-132.8,120.5c36.6,1.3,66.6,1.1,90.1-0.5s43.9-6,61.4-13.1
		c9.7-4,20-9.8,30.8-17.4v-5.5l0.3,3.8l80.8,0.5l-0.4,71.4c-0.1,27-2.7,45.6-7.7,56.1c-5,10.4-14.8,15.6-29.5,15.5
		c-20.7-0.1-39.4-14.4-41.9-44.9l-1.6,0.2v-1.2c-6.5,4.6-14.7,8.9-24.5,12.9c-17.2,7-35.5,11.3-54.9,12.8c-19.5,1.5-46.5,1.3-81-0.9
		c-34.6-1.4-61.3-1.6-80.2-0.7c-4,0.2-8,0.6-12,1v75.1h251.1l0,1.8l121.1-0.4c8.1-5.6,15.4-12.4,21.7-20.4
		c21.3-26.8,32-61.7,32.3-104.8l0.4-73.1l69.1,0.4l0.5-83l-63.6,0.7l0.7-116.5l0,0L419.5,396.6z"/>
	<path d="M0.6,396.8v159.1c42-18.9,74.9-46.5,98.6-82.8c15.6-23.8,27-49.3,34.4-76.3H0.6z"/>
	<path d="M13.7,263.9C9.3,260.2,5,256.6,0.6,253v51.7c31.3,30.6,54.5,61.3,69.5,92h62.5C104.2,351.4,64.6,307.2,13.7,263.9z"/>
	<rect x="552.4" y="735" width="93.6" height="58.5"/>
	<polygon points="655,793.5 756,793.5 756,755.6 	"/>
	<path d="M817.6,697.7c0.1,23.6,6.3,45.9,18.5,66.8c6.1,10.4,13.2,19.8,21.5,28.3h150.1V584.5c-15-6.7-31.2-10.8-48.6-12.1
		c-24.3-1.8-47.4,2.3-69.3,12.3c-22,10-39.6,25.6-52.8,46.6C824,651.9,817.6,674,817.6,697.7z"/>
	<polygon points="1007.7,489.5 1007.7,395.4 988.5,395.4 951.5,454 	"/>
	<polygon points="756.9,792.8 756.9,792.8 756.9,792.8 	"/>
</g>
</svg>
