<?xml version="1.0" encoding="utf-8"?>
<!-- Generator: Adobe Illustrator 23.0.3, SVG Export Plug-In . SVG Version: 6.00 Build 0)  -->
<svg version="1.1" id="Layer_1" xmlns="http://www.w3.org/2000/svg" xmlns:xlink="http://www.w3.org/1999/xlink" x="0px" y="0px"
	 viewBox="0 0 216 216" style="enable-background:new 0 0 216 216;" xml:space="preserve">
<style type="text/css">
	.st0{fill:none;stroke:#000000;stroke-miterlimit:10;}
	.st1{fill:#FFFFFF;stroke:#000000;stroke-miterlimit:10;}
	.st2{stroke:#FFFFFF;stroke-miterlimit:10;}
</style>
<g>
	<path class="st0" d="M62,114.5c0,0,2.2,31.9,5.3,37.8s15.3,25,22.2,29.4c6.9,4.4,16.6,8.1,19.7,7.5c3.1-0.6,13.4-0.9,23.4-15
		c10-14.1,20-34.7,20.3-41c0.3-6.3,2.5-22.8-0.9-31c-3.4-8.1-6.6-22.5-11.9-23.1c-4.9-0.6-27.5-13.6-58.4-3.5
		c-5.7,1.9-10.6,5.7-13.6,10.8C64.2,93.3,59.8,103.7,62,114.5z"/>
	<path d="M147.6,104.7c0,0-2-6.8-12-5.7c-10,1.1-15.7,4.9-15.7,4.9s-3.7-1.1,0.9-5.7c4.6-4.6,16.5-6.3,18.5-5.1
		C141.3,94.2,148.7,100.2,147.6,104.7z"/>
	<path d="M100.2,109.6c0,0-14.5-11.4-30-0.2c0,0,4.6-8.1,12-9.4s17.8,2.5,17.8,4.6S103.4,106.7,100.2,109.6z"/>
	<path class="st1" d="M85,109c0,0,12,1.2,16.5,4.6c0,0,2.9,0.6,1.3,4.8s-4.3,13-11.9,12.6c-7.5-0.4-7.7,0.4-17.9-2.3
		c0,0-5.1-2.5-4.6-8.8c0.4-6.4-0.6-9.5,4.6-10.6C78.2,108.3,85,109,85,109z"/>
	<path class="st1" d="M115.9,123.4c-0.1-1-0.3-1.9-0.6-2.8c-0.8-2.5-1.7-7.9,4.5-9c8.1-1.4,22-3.8,27-0.6s3.2,7.9,3.2,7.9
		s-1.4,9.8-7.4,11.1c-5.9,1.3-15.9,2.5-22.1,0.7C120.5,130.8,116.6,128.8,115.9,123.4z"/>
	<path class="st2" d="M63.7,107.7l6.5,1.7c0,0,22.1-3.3,33.5,4.7c0,0,8.6,0.8,8.4-1.2c0,0,25.3-7.7,36-4.3
		c10.7,3.4-1.7,20.4-1.7,20.4s-29.3,10.1-31.3-5.1c0,0,0-6.1-6.9-4.9c-6.9,1.2-5.4-1.2-7.7,5.1c0,0-2.2,7.6-11.8,7.1
		s-18.7,0.1-20.7-6.3s-2.8-10.5-4.7-10.9C61.5,113.6,63.7,107.7,63.7,107.7z"/>
	<path class="st0" d="M103,122.3c0,0-1.6,11.3-6.6,13.8"/>
	<path class="st1" d="M95.2,142c0,0,5-1.3,7.8,3.4c2.8,4.7,9.4,0.6,10-0.6s6.6-4.7,8.4-1.9c1.9,2.8,1.3-8.4-2.5-9.7"/>
	<path class="st0" d="M88.5,155.5c0,0,9.5-3.7,11.8-3.2s5.9,2.1,6.4,1.4s6.2-0.9,8.6,0.6c2.4,1.5,7.6,5.8,7.6,6.8
		s-15.9-0.8-16.1-1.1C106.6,159.8,93.3,162.6,88.5,155.5z"/>
	<path class="st0" d="M89.4,156.8c0,0,7.1,9.7,14.4,10c7.3,0.3,17.8-5.9,18.9-5.2c1.1,0.7-14.2-1-15.1-0.9c-0.8,0.1-4,1-4.5-0.2
		C102.6,159.3,95.1,162.5,89.4,156.8z"/>
	<path d="M65.6,144c0,0-8.4-6.9-9.5-10.4c-1.1-3.5-8.8,3.5-5.1-13.3c3.8-16.8,1.8,0.2-0.9-16.4c-2.7-16.6-2.7-13.5-0.2-17.5
		c2.4-4-0.9-6.4,3.1-9.9c4-3.5-2.4-13,2.2-20.3s4-2.2,7.5-10.6c3.5-8.4,11.5-11,14.4-9.3c2.9,1.8,12.6-2.7,13-4.9
		c0.4-2.2,5.7-4.9,10.6-2.7s6.9-2.2,10.2-2.2s11,2.4,14.4,4.4s14.1,0.4,17.7,3.3c3.5,2.9,21.2,17,18.3,31.2s4,7.7,6.2,13.5
		s-4.6,8.4-3.3,13.3c1.3,4.9,5.1,12.2,2,19c-3.1,6.9-3.3,9.3-3.1,12.2c0.2,2.9-6,7.5-5.7,14.4c0.2,6.9-9.5,10.2-8.4,13.7
		s-6.2,6.6-6.2,6.6s15.5-24.3,10.2-54.1c0,0-7.1-23.2-11.7-24.1c0,0-18.3-8.6-35.1-8S76,74.9,69.1,85S58.7,106.2,65.6,144z"/>
</g>
</svg>
