<svg version="1.1" id="Layer_1" xmlns="http://www.w3.org/2000/svg" xmlns:xlink="http://www.w3.org/1999/xlink" x="0px" y="0px"
	 viewBox="0 0 360 360" style="enable-background:new 0 0 360 360;" xml:space="preserve">
		<style type="text/css">
			.st0{font-family:'Lato-Regular';}
			.st1{font-size:14.5px;}
			.st2{fill:none;stroke:#000000;stroke-linecap:square;stroke-miterlimit:10;}
			.st3{fill:#FFFFFF;}
			.st4{font-size:17px;}
		</style>
		<text transform="matrix(1 0 0 1 2.7033 103.3924)" class="st0 st1">Photoshop</text>
		<text transform="matrix(1 0 0 1 2.7032 129.5696)" class="st0 st1">Illustrator</text>
		<text transform="matrix(1 0 0 1 2.7033 157.3544)" class="st0 st1">InDesign</text>
		<text transform="matrix(1 0 0 1 2.7031 185.1518)" class="st0 st1">Machine Embroidery</text>
		<text transform="matrix(1 0 0 1 2.7033 79.443)" class="st0 st1">Customer Service</text>
		<text transform="matrix(1 0 0 1 2.7031 212.5696)" class="st0 st1">Screen Printing</text>
		<text transform="matrix(1 0 0 1 2.7637 239.1519)" class="st0 st1">AB Dick</text>
		<text transform="matrix(1 0 0 1 2.7031 268.2658)" class="st0 st1">HTML &amp; CSS</text>
		<g>
			<g>
				<g>
					<line class="st2" x1="143.68" y1="264.47" x2="327.64" y2="264.47"/>
					<g>
						<g>
							<rect x="140.57" y="261.17" class="st3" width="6.6" height="6.6"/>
							<path d="M140.07,268.27h7.6v-7.6h-7.6V268.27z M146.67,267.27h-5.6v-5.6h5.6V267.27z"/>
						</g>
					</g>
					<g>
						<g>
							<rect x="324.15" y="261.17" class="st3" width="6.6" height="6.6"/>
							<path d="M331.25,268.27h-7.6v-7.6h7.6V268.27z M324.65,267.27h5.6v-5.6h-5.6V267.27z"/>
						</g>
					</g>
				</g>
			</g>
			<rect x="300.17" y="260.56" width="31.38" height="7.81"/>
		</g>
		<g>
			<g>
				<g>
					<line class="st2" x1="143.91" y1="235.35" x2="327.87" y2="235.35"/>
					<g>
						<g>
							<rect x="140.8" y="232.05" class="st3" width="6.6" height="6.6"/>
							<path d="M140.3,239.16h7.6v-7.6h-7.6V239.16z M146.9,238.16h-5.6v-5.6h5.6V238.16z"/>
						</g>
					</g>
					<g>
						<g>
							<rect x="324.38" y="232.05" class="st3" width="6.6" height="6.6"/>
							<path d="M331.48,239.16h-7.6v-7.6h7.6V239.16z M324.88,238.16h5.6v-5.6h-5.6V238.16z"/>
						</g>
					</g>
				</g>
			</g>
			<rect x="140.14" y="231.05" width="29.89" height="8.3"/>
		</g>
		<g>
			<g>
				<g>
					<line class="st2" x1="143.83" y1="208.77" x2="327.79" y2="208.77"/>
					<g>
						<g>
							<rect x="140.72" y="205.47" class="st3" width="6.6" height="6.6"/>
							<path d="M140.22,212.57h7.6v-7.6h-7.6V212.57z M146.82,211.57h-5.6v-5.6h5.6V211.57z"/>
						</g>
					</g>
					<g>
						<g>
							<rect x="324.3" y="205.47" class="st3" width="6.6" height="6.6"/>
							<path d="M331.4,212.57h-7.6v-7.6h7.6V212.57z M324.8,211.57h5.6v-5.6h-5.6V211.57z"/>
						</g>
					</g>
				</g>
			</g>
			<rect x="140.74" y="205.15" width="86.67" height="7.22"/>
		</g>
		<g>
			<g>
				<g>
					<line class="st2" x1="143.83" y1="181.35" x2="327.79" y2="181.35"/>
					<g>
						<g>
							<rect x="140.72" y="178.05" class="st3" width="6.6" height="6.6"/>
							<path d="M140.22,185.16h7.6v-7.6h-7.6V185.16z M146.82,184.16h-5.6v-5.6h5.6V184.16z"/>
						</g>
					</g>
					<g>
						<g>
							<rect x="324.3" y="178.05" class="st3" width="6.6" height="6.6"/>
							<path d="M331.4,185.16h-7.6v-7.6h7.6V185.16z M324.8,184.16h5.6v-5.6h-5.6V184.16z"/>
						</g>
					</g>
				</g>
			</g>
			<rect x="184.67" y="177.93" width="61.17" height="7.22"/>
		</g>
		<text transform="matrix(1 0 0 1 122.0574 52.1238)" class="st0 st4">2014</text>
		<g>
			<text transform="matrix(1 0 0 1 311.7848 52.1238)" class="st0 st4">2019</text>
		</g>
		<g>
			<text transform="matrix(1 0 0 1 216.0905 51.8354)" class="st0 st4">2017</text>
		</g>
		<g>
			<g>
				<g>
					<line class="st2" x1="143.99" y1="76.28" x2="327.95" y2="76.28"/>
					<g>
						<g>
							<rect x="140.88" y="72.98" class="st3" width="6.6" height="6.6"/>
							<path d="M140.38,80.08h7.6v-7.6h-7.6V80.08z M146.98,79.08h-5.6v-5.6h5.6V79.08z"/>
						</g>
					</g>
					<g>
						<g>
							<rect x="324.46" y="72.98" class="st3" width="6.6" height="6.6"/>
							<path d="M331.56,80.08h-7.6v-7.6h7.6V80.08z M324.96,79.08h5.6v-5.6h-5.6V79.08z"/>
						</g>
					</g>
				</g>
			</g>
			<rect x="140.06" y="72.29" width="145.29" height="8.14"/>
		</g>
		<g>
			<g>
				<g>
					<line class="st2" x1="143.83" y1="100.23" x2="327.79" y2="100.23"/>
					<g>
						<g>
							<rect x="140.72" y="96.93" class="st3" width="6.6" height="6.6"/>
							<path d="M140.22,104.03h7.6v-7.6h-7.6V104.03z M146.82,103.03h-5.6v-5.6h5.6V103.03z"/>
						</g>
					</g>
					<g>
						<g>
							<rect x="324.3" y="96.93" class="st3" width="6.6" height="6.6"/>
							<path d="M331.4,104.03h-7.6v-7.6h7.6V104.03z M324.8,103.03h5.6v-5.6h-5.6V103.03z"/>
						</g>
					</g>
				</g>
			</g>
			<rect x="141.02" y="96.7" width="104.77" height="7.22"/>
		</g>
		<g>
			<g>
				<g>
					<line class="st2" x1="143.83" y1="126.41" x2="327.79" y2="126.41"/>
					<g>
						<g>
							<rect x="140.72" y="123.1" class="st3" width="6.6" height="6.6"/>
							<path d="M140.22,130.21h7.6v-7.6h-7.6V130.21z M146.82,129.21h-5.6v-5.6h5.6V129.21z"/>
						</g>
					</g>
					<g>
						<g>
							<rect x="324.3" y="123.1" class="st3" width="6.6" height="6.6"/>
							<path d="M331.4,130.21h-7.6v-7.6h7.6V130.21z M324.8,129.21h5.6v-5.6h-5.6V129.21z"/>
						</g>
					</g>
				</g>
			</g>
			<rect x="140.68" y="122.5" width="190.1" height="7.88"/>
		</g>
		<g>
			<g>
				<g>
					<line class="st2" x1="143.83" y1="154.19" x2="327.79" y2="154.19"/>
					<g>
						<g>
							<rect x="140.72" y="150.89" class="st3" width="6.6" height="6.6"/>
							<path d="M140.22,157.99h7.6v-7.6h-7.6V157.99z M146.82,156.99h-5.6v-5.6h5.6V156.99z"/>
						</g>
					</g>
					<g>
						<g>
							<rect x="324.3" y="150.89" class="st3" width="6.6" height="6.6"/>
							<path d="M331.4,157.99h-7.6v-7.6h7.6V157.99z M324.8,156.99h5.6v-5.6h-5.6V156.99z"/>
						</g>
					</g>
				</g>
			</g>
			<rect x="183.91" y="149.91" width="147.09" height="8.33"/>
		</g>
</svg>
